<svg width="139" height="42" viewBox="0 0 139 42" fill="none" xmlns="http://www.w3.org/2000/svg">
<path d="M43.308 36.44V34.816H43.672C43.896 34.816 44.1573 34.7787 44.456 34.704C44.7547 34.6293 45.0067 34.4613 45.212 34.2C45.436 33.9573 45.548 33.584 45.548 33.08V18.576C45.548 17.9973 45.4733 17.568 45.324 17.288C45.1933 17.008 44.9973 16.8213 44.736 16.728C44.4933 16.6347 44.204 16.588 43.868 16.588H43.7V14.992H49.44L50.028 17.036H50.14C50.5507 16.364 51.092 15.8133 51.764 15.384C52.4547 14.936 53.3413 14.712 54.424 14.712C56.2907 14.712 57.7093 15.3467 58.68 16.616C59.6693 17.8667 60.164 19.8547 60.164 22.58C60.164 25.2867 59.6787 27.2653 58.708 28.516C57.756 29.748 56.3373 30.364 54.452 30.364C53.4627 30.364 52.6507 30.196 52.016 29.86C51.4 29.524 50.8867 29.0573 50.476 28.46H50.308C50.3267 28.7587 50.3453 29.104 50.364 29.496C50.4013 29.8693 50.4293 30.2427 50.448 30.616C50.4667 30.9893 50.476 31.344 50.476 31.68V33.024C50.476 33.5467 50.5787 33.9293 50.784 34.172C51.008 34.4333 51.2693 34.6013 51.568 34.676C51.8667 34.7693 52.1187 34.816 52.324 34.816H53.136V36.44H43.308ZM52.912 28.18C53.472 28.18 53.92 27.984 54.256 27.592C54.592 27.1813 54.8347 26.5653 54.984 25.744C55.152 24.9227 55.236 23.8867 55.236 22.636C55.236 21.4227 55.152 20.396 54.984 19.556C54.8347 18.6973 54.592 18.044 54.256 17.596C53.9387 17.148 53.5093 16.924 52.968 16.924C52.3147 16.924 51.8013 17.148 51.428 17.596C51.0733 18.044 50.8213 18.688 50.672 19.528C50.5413 20.368 50.476 21.3853 50.476 22.58C50.476 23.868 50.5413 24.9227 50.672 25.744C50.8213 26.5653 51.0733 27.1813 51.428 27.592C51.7827 27.984 52.2773 28.18 52.912 28.18ZM68.0377 30.28C66.8244 30.28 65.7884 30.0093 64.9297 29.468C64.0897 28.9267 63.4457 28.0867 62.9977 26.948C62.5497 25.7907 62.3257 24.316 62.3257 22.524C62.3257 20.7133 62.5497 19.2293 62.9977 18.072C63.4457 16.9147 64.0897 16.056 64.9297 15.496C65.7697 14.9173 66.7777 14.628 67.9537 14.628C68.999 14.628 69.839 14.824 70.4737 15.216C71.1084 15.608 71.6217 16.0933 72.0137 16.672H72.1817C72.163 16.3733 72.135 16.0373 72.0977 15.664C72.079 15.272 72.0604 14.88 72.0417 14.488C72.0417 14.0773 72.0417 13.7133 72.0417 13.396V11.996C72.0417 11.492 71.939 11.128 71.7337 10.904C71.5284 10.6613 71.2577 10.5027 70.9217 10.428C70.5857 10.3533 70.2124 10.316 69.8017 10.316H69.5777V8.72H76.9697V26.248C76.9697 26.8267 77.0537 27.2747 77.2217 27.592C77.4084 27.8907 77.6604 28.1053 77.9777 28.236C78.3137 28.348 78.6964 28.404 79.1257 28.404H79.2937V30H73.4697L72.5737 27.956H72.3777C71.967 28.6653 71.4164 29.2347 70.7257 29.664C70.035 30.0747 69.139 30.28 68.0377 30.28ZM69.5497 28.068C70.5017 28.068 71.155 27.6107 71.5097 26.696C71.8644 25.7627 72.0417 24.344 72.0417 22.44C72.0417 21.2267 71.967 20.2093 71.8177 19.388C71.6684 18.548 71.4164 17.9133 71.0617 17.484C70.707 17.036 70.203 16.812 69.5497 16.812C69.0084 16.812 68.5697 17.036 68.2337 17.484C67.9164 17.9133 67.6737 18.548 67.5057 19.388C67.3564 20.228 67.2817 21.264 67.2817 22.496C67.2817 23.728 67.3564 24.764 67.5057 25.604C67.655 26.4253 67.8977 27.0413 68.2337 27.452C68.5697 27.8627 69.0084 28.068 69.5497 28.068ZM79.8841 30V28.404H80.6121C80.8174 28.404 81.0694 28.3667 81.3681 28.292C81.6668 28.1987 81.9188 28.0307 82.1241 27.788C82.3481 27.5267 82.4601 27.144 82.4601 26.64V17.12H79.9961V14.992H82.4601V14.096C82.4601 12.3413 82.9174 10.9693 83.8321 9.98C84.7654 8.99067 86.3148 8.496 88.4801 8.496C89.7868 8.496 90.7854 8.59867 91.4761 8.804C92.1668 8.99067 92.6428 9.24267 92.9041 9.56C93.1654 9.87733 93.2961 10.2133 93.2961 10.568C93.2961 10.96 93.1841 11.3053 92.9601 11.604C92.7361 11.9027 92.3628 12.1453 91.8401 12.332C91.3361 12.5 90.6361 12.584 89.7401 12.584C89.7401 12.304 89.7028 11.9773 89.6281 11.604C89.5534 11.2307 89.4321 10.904 89.2641 10.624C89.1148 10.344 88.8908 10.204 88.5921 10.204C88.1814 10.204 87.8734 10.4467 87.6681 10.932C87.4628 11.3987 87.3601 12.2573 87.3601 13.508V14.992H91.1961V17.12H87.3601V26.64C87.3601 27.144 87.4628 27.5267 87.6681 27.788C87.8921 28.0307 88.1441 28.1987 88.4241 28.292C88.7228 28.3667 88.9934 28.404 89.2361 28.404H90.6641V30H79.8841ZM99.7606 30.28C97.2219 30.28 95.3273 29.608 94.0766 28.264C92.8259 26.9013 92.2006 24.9973 92.2006 22.552C92.2006 19.92 92.8259 17.9413 94.0766 16.616C95.3459 15.272 97.1286 14.6 99.4246 14.6C101.553 14.6 103.223 15.1693 104.437 16.308C105.669 17.4467 106.285 19.1267 106.285 21.348V22.86H97.1566C97.1939 24.0547 97.3526 25.0347 97.6326 25.8C97.9313 26.5653 98.3513 27.1347 98.8926 27.508C99.4339 27.8627 100.097 28.04 100.881 28.04C101.534 28.04 102.094 27.9373 102.561 27.732C103.046 27.508 103.457 27.2187 103.793 26.864C104.147 26.4907 104.427 26.0707 104.633 25.604C104.95 25.716 105.193 25.8933 105.361 26.136C105.547 26.36 105.641 26.6493 105.641 27.004C105.641 27.5453 105.435 28.068 105.025 28.572C104.633 29.076 104.007 29.4867 103.149 29.804C102.29 30.1213 101.161 30.28 99.7606 30.28ZM101.413 20.956C101.413 20.004 101.347 19.2013 101.217 18.548C101.086 17.8947 100.881 17.4 100.601 17.064C100.339 16.7093 99.9846 16.532 99.5366 16.532C99.0886 16.532 98.6873 16.7 98.3326 17.036C97.9779 17.372 97.7073 17.8667 97.5206 18.52C97.3339 19.1733 97.2313 19.9853 97.2126 20.956H101.413ZM113.759 36.608C111.463 36.608 109.746 36.2907 108.607 35.656C107.468 35.0213 106.899 34.088 106.899 32.856C106.899 32.2213 107.048 31.6707 107.347 31.204C107.664 30.756 108.112 30.392 108.691 30.112C109.288 29.8507 109.988 29.7013 110.791 29.664C110.25 29.4587 109.736 29.16 109.251 28.768C108.784 28.376 108.551 27.844 108.551 27.172C108.551 26.5373 108.803 25.9867 109.307 25.52C109.83 25.0533 110.502 24.6053 111.323 24.176C110.446 23.896 109.699 23.4013 109.083 22.692C108.467 21.964 108.159 20.9933 108.159 19.78C108.159 18.1187 108.663 16.84 109.671 15.944C110.679 15.048 112.256 14.6 114.403 14.6C115.112 14.6 115.747 14.6653 116.307 14.796C116.886 14.9267 117.408 15.1133 117.875 15.356C118.192 15.02 118.5 14.7307 118.799 14.488C119.116 14.2453 119.443 14.0587 119.779 13.928C120.134 13.7973 120.535 13.732 120.983 13.732C121.655 13.732 122.159 13.9 122.495 14.236C122.831 14.572 122.999 14.964 122.999 15.412C122.999 15.86 122.85 16.2613 122.551 16.616C122.252 16.9707 121.702 17.148 120.899 17.148C120.899 16.7 120.778 16.3827 120.535 16.196C120.311 15.9907 120.087 15.888 119.863 15.888C119.695 15.888 119.527 15.916 119.359 15.972C119.191 16.028 119.051 16.0933 118.939 16.168C119.387 16.56 119.76 17.0547 120.059 17.652C120.358 18.2493 120.507 18.9307 120.507 19.696C120.507 21.1707 120.012 22.384 119.023 23.336C118.052 24.2693 116.512 24.736 114.403 24.736C114.216 24.736 113.936 24.7267 113.563 24.708C113.208 24.6893 112.947 24.6707 112.779 24.652C112.555 24.7267 112.34 24.8947 112.135 25.156C111.948 25.3987 111.855 25.6693 111.855 25.968C111.855 26.2667 111.976 26.4813 112.219 26.612C112.462 26.7427 112.76 26.808 113.115 26.808H116.475C117.782 26.808 118.846 26.976 119.667 27.312C120.507 27.6293 121.132 28.1147 121.543 28.768C121.954 29.4027 122.159 30.1867 122.159 31.12C122.159 32.8373 121.468 34.1813 120.087 35.152C118.724 36.1227 116.615 36.608 113.759 36.608ZM113.815 34.816C114.823 34.816 115.663 34.7227 116.335 34.536C117.007 34.3493 117.511 34.06 117.847 33.668C118.202 33.2947 118.379 32.8373 118.379 32.296C118.379 31.8293 118.211 31.4653 117.875 31.204C117.558 30.9613 117.044 30.84 116.335 30.84H112.891C112.592 30.84 112.266 30.896 111.911 31.008C111.556 31.12 111.258 31.316 111.015 31.596C110.772 31.8947 110.651 32.3147 110.651 32.856C110.651 33.304 110.782 33.668 111.043 33.948C111.304 34.2467 111.678 34.4613 112.163 34.592C112.648 34.7413 113.199 34.816 113.815 34.816ZM114.347 22.972C114.851 22.972 115.234 22.8413 115.495 22.58C115.756 22.3 115.934 21.9173 116.027 21.432C116.12 20.9467 116.167 20.396 116.167 19.78C116.167 19.1453 116.12 18.576 116.027 18.072C115.934 17.5493 115.756 17.1387 115.495 16.84C115.234 16.5413 114.842 16.392 114.319 16.392C113.834 16.392 113.451 16.5507 113.171 16.868C112.91 17.1667 112.723 17.5773 112.611 18.1C112.499 18.604 112.443 19.1733 112.443 19.808C112.443 20.4053 112.499 20.9467 112.611 21.432C112.723 21.8987 112.91 22.272 113.171 22.552C113.451 22.832 113.843 22.972 114.347 22.972ZM129.42 36.608C127.124 36.608 125.407 36.2907 124.268 35.656C123.13 35.0213 122.56 34.088 122.56 32.856C122.56 32.2213 122.71 31.6707 123.008 31.204C123.326 30.756 123.774 30.392 124.352 30.112C124.95 29.8507 125.65 29.7013 126.452 29.664C125.911 29.4587 125.398 29.16 124.912 28.768C124.446 28.376 124.212 27.844 124.212 27.172C124.212 26.5373 124.464 25.9867 124.968 25.52C125.491 25.0533 126.163 24.6053 126.984 24.176C126.107 23.896 125.36 23.4013 124.744 22.692C124.128 21.964 123.82 20.9933 123.82 19.78C123.82 18.1187 124.324 16.84 125.332 15.944C126.34 15.048 127.918 14.6 130.064 14.6C130.774 14.6 131.408 14.6653 131.968 14.796C132.547 14.9267 133.07 15.1133 133.536 15.356C133.854 15.02 134.162 14.7307 134.46 14.488C134.778 14.2453 135.104 14.0587 135.44 13.928C135.795 13.7973 136.196 13.732 136.644 13.732C137.316 13.732 137.82 13.9 138.156 14.236C138.492 14.572 138.66 14.964 138.66 15.412C138.66 15.86 138.511 16.2613 138.212 16.616C137.914 16.9707 137.363 17.148 136.56 17.148C136.56 16.7 136.439 16.3827 136.196 16.196C135.972 15.9907 135.748 15.888 135.524 15.888C135.356 15.888 135.188 15.916 135.02 15.972C134.852 16.028 134.712 16.0933 134.6 16.168C135.048 16.56 135.422 17.0547 135.72 17.652C136.019 18.2493 136.168 18.9307 136.168 19.696C136.168 21.1707 135.674 22.384 134.684 23.336C133.714 24.2693 132.174 24.736 130.064 24.736C129.878 24.736 129.598 24.7267 129.224 24.708C128.87 24.6893 128.608 24.6707 128.44 24.652C128.216 24.7267 128.002 24.8947 127.796 25.156C127.61 25.3987 127.516 25.6693 127.516 25.968C127.516 26.2667 127.638 26.4813 127.88 26.612C128.123 26.7427 128.422 26.808 128.776 26.808H132.136C133.443 26.808 134.507 26.976 135.328 27.312C136.168 27.6293 136.794 28.1147 137.204 28.768C137.615 29.4027 137.82 30.1867 137.82 31.12C137.82 32.8373 137.13 34.1813 135.748 35.152C134.386 36.1227 132.276 36.608 129.42 36.608ZM129.476 34.816C130.484 34.816 131.324 34.7227 131.996 34.536C132.668 34.3493 133.172 34.06 133.508 33.668C133.863 33.2947 134.04 32.8373 134.04 32.296C134.04 31.8293 133.872 31.4653 133.536 31.204C133.219 30.9613 132.706 30.84 131.996 30.84H128.552C128.254 30.84 127.927 30.896 127.572 31.008C127.218 31.12 126.919 31.316 126.676 31.596C126.434 31.8947 126.312 32.3147 126.312 32.856C126.312 33.304 126.443 33.668 126.704 33.948C126.966 34.2467 127.339 34.4613 127.824 34.592C128.31 34.7413 128.86 34.816 129.476 34.816ZM130.008 22.972C130.512 22.972 130.895 22.8413 131.156 22.58C131.418 22.3 131.595 21.9173 131.688 21.432C131.782 20.9467 131.828 20.396 131.828 19.78C131.828 19.1453 131.782 18.576 131.688 18.072C131.595 17.5493 131.418 17.1387 131.156 16.84C130.895 16.5413 130.503 16.392 129.98 16.392C129.495 16.392 129.112 16.5507 128.832 16.868C128.571 17.1667 128.384 17.5773 128.272 18.1C128.16 18.604 128.104 19.1733 128.104 19.808C128.104 20.4053 128.16 20.9467 128.272 21.432C128.384 21.8987 128.571 22.272 128.832 22.552C129.112 22.832 129.504 22.972 130.008 22.972Z" fill="white"/>
<path d="M21 38.5C31.9025 38.4125 34.7725 28.7525 34.125 21C33.495 13.405 27.2125 3.57 21 3.5C14.7875 3.57 8.50497 13.405 7.87497 21C7.22747 28.7525 10.0975 38.4125 21 38.5Z" fill="white" stroke="white" stroke-width="2" stroke-linecap="round" stroke-linejoin="round"/>
<ellipse cx="21" cy="24" rx="10" ry="11" fill="#FF8A00"/>
</svg>
